<?xml version="1.0" standalone="no"?>
<!DOCTYPE svg PUBLIC "-//W3C//DTD SVG 20010904//EN"
 "http://www.w3.org/TR/2001/REC-SVG-20010904/DTD/svg10.dtd">
<svg version="1.0" xmlns="http://www.w3.org/2000/svg"
 width="504.000000pt" height="437.000000pt" viewBox="0 0 504.000000 437.000000"
 preserveAspectRatio="xMidYMid meet">

<g transform="translate(0.000000,437.000000) scale(0.100000,-0.100000)"
fill="#000000" stroke="none">
<path d="M0 2185 l0 -2185 2520 0 2520 0 0 2185 0 2185 -2520 0 -2520 0 0
-2185z m2639 1940 c87 -21 218 -84 291 -139 l60 -46 86 15 c273 47 536 -36
728 -230 69 -70 74 -73 141 -84 162 -28 321 -116 441 -242 84 -89 135 -171
174 -276 144 -396 -33 -833 -412 -1013 -131 -62 -191 -75 -358 -75 -138 1
-150 2 -240 33 -52 19 -117 46 -144 61 l-49 29 -44 -57 c-169 -212 -410 -321
-677 -308 -218 11 -401 93 -554 249 l-52 54 -78 -38 c-121 -59 -237 -82 -385
-75 -86 3 -143 11 -192 27 -278 88 -477 290 -557 566 -33 114 -33 325 1 434
47 153 114 262 228 371 149 143 336 219 539 219 l84 0 36 73 c129 256 328 410
599 463 84 16 242 11 334 -11z m-364 -2571 c50 -54 17 -134 -55 -134 -47 0
-78 24 -86 67 -5 27 -1 37 24 63 40 39 83 41 117 4z m736 -33 c18 -14 23 -31
27 -77 l4 -59 73 0 c65 0 78 -3 117 -30 114 -81 129 -258 29 -348 -46 -42 -93
-57 -175 -57 -74 0 -126 16 -168 50 l-33 28 -3 247 c-2 195 0 250 10 256 24
16 95 10 119 -10z m989 -1 c20 -20 20 -31 18 -293 l-3 -272 -56 -3 c-92 -5
-89 -15 -89 303 0 209 3 275 13 278 33 14 98 6 117 -13z m236 6 c18 -14 19
-29 19 -293 l0 -278 -52 -3 c-98 -6 -93 -22 -93 298 0 213 3 280 13 283 26 11
94 6 113 -7z m-2745 -57 c107 -59 128 -190 44 -274 -19 -19 -35 -36 -35 -38 0
-2 22 -32 50 -68 27 -35 50 -70 50 -76 0 -27 -40 -53 -81 -53 -58 0 -72 11
-124 95 -65 104 -83 103 -87 -7 l-3 -83 -62 -3 c-93 -4 -93 -5 -93 264 0 207
1 222 20 239 29 26 75 34 181 31 79 -2 104 -7 140 -27z m485 -108 c66 -37 74
-59 75 -212 1 -132 0 -134 -25 -156 -38 -32 -99 -45 -191 -41 -92 4 -143 24
-168 67 -19 33 -22 102 -6 133 16 30 86 57 168 64 57 6 71 10 69 22 -5 25 -64
35 -137 22 -59 -10 -67 -10 -78 6 -30 41 -2 97 54 110 16 3 33 8 38 10 6 2 44
2 85 1 56 -3 86 -9 116 -26z m738 3 c76 -39 81 -54 84 -245 l3 -169 -60 0
c-88 0 -91 6 -91 156 0 111 -2 126 -20 144 -22 22 -37 24 -74 10 l-26 -10 0
-150 0 -150 -57 0 c-91 0 -93 4 -93 191 0 150 1 159 23 184 53 63 225 84 311
39z m981 1 c22 -11 50 -35 62 -54 21 -31 23 -46 23 -163 0 -125 -1 -130 -26
-153 -14 -13 -48 -29 -75 -35 -71 -17 -197 -9 -240 16 -45 26 -71 78 -65 127
8 72 56 102 179 113 87 8 102 26 38 45 -31 9 -54 9 -101 0 -72 -14 -90 -6 -90
44 0 59 58 86 180 82 51 -2 88 -9 115 -22z m-1427 -1 c21 -15 22 -20 22 -215
l0 -199 -57 0 c-93 0 -93 0 -93 226 0 144 3 194 13 197 27 11 94 6 115 -9z
m-208 -699 c10 -12 10 -18 0 -30 -25 -30 -61 -7 -46 30 3 8 12 15 19 15 8 0
20 -7 27 -15z m340 0 c10 -12 10 -18 0 -30 -25 -30 -61 -7 -46 30 3 8 12 15
19 15 8 0 20 -7 27 -15z m394 -1 c9 -3 16 -14 16 -24 0 -14 -9 -20 -32 -22
-42 -4 -50 -28 -9 -28 16 0 32 -4 35 -9 11 -17 -6 -41 -30 -41 -21 0 -23 -5
-26 -52 -3 -49 -5 -53 -28 -53 -25 0 -25 1 -28 96 -3 95 -2 98 24 118 27 21
50 26 78 15z m-1876 -16 c7 -7 12 -20 12 -30 0 -13 8 -18 29 -18 31 0 69 -26
72 -50 1 -8 1 -39 0 -68 -1 -49 -3 -53 -23 -50 -20 3 -24 10 -28 58 -4 47 -8
55 -27 58 -20 3 -22 -1 -25 -55 -3 -54 -5 -58 -28 -58 -25 0 -25 1 -28 99 -1
55 0 106 2 113 7 16 28 17 44 1z m-83 -33 c0 -14 -8 -21 -27 -23 -28 -3 -28
-4 -28 -83 0 -69 -2 -79 -18 -79 -32 0 -42 22 -42 92 0 66 -1 68 -25 68 -18 0
-25 5 -25 18 0 30 10 33 90 30 67 -3 75 -5 75 -23z m369 -36 c29 -23 35 -63
10 -73 -9 -3 -29 -6 -45 -6 -16 0 -29 -4 -29 -10 0 -5 18 -10 39 -10 46 0 58
-12 35 -34 -28 -29 -101 -16 -131 23 -16 21 -16 73 0 93 32 41 81 48 121 17z
m271 10 c6 0 22 3 37 7 44 10 75 -17 83 -71 10 -64 0 -97 -28 -93 -19 3 -23
11 -27 58 -4 47 -8 55 -25 55 -17 0 -20 -8 -23 -58 -3 -54 -5 -58 -25 -55 -19
3 -23 11 -27 58 -4 47 -8 55 -25 55 -17 0 -20 -8 -23 -58 -3 -54 -5 -58 -25
-55 -20 3 -22 9 -22 73 0 64 2 70 25 83 15 7 39 10 60 7 19 -4 40 -6 45 -6z
m215 -49 c4 -47 8 -55 27 -58 20 -3 22 1 25 55 2 47 6 58 22 61 27 5 36 -15
36 -80 0 -66 -20 -88 -81 -88 -55 0 -81 26 -87 88 -6 65 1 84 30 80 20 -3 24
-10 28 -58z m264 44 c25 -25 19 -34 -25 -34 -24 0 -38 -4 -34 -10 3 -5 14 -10
24 -10 31 0 62 -32 55 -56 -11 -42 -85 -57 -124 -26 -32 26 -18 41 30 35 26
-4 40 -2 40 6 0 6 -11 11 -24 11 -35 0 -70 32 -62 57 12 39 91 57 120 27z
m105 2 c7 -9 11 -41 9 -83 -3 -65 -4 -68 -28 -68 -24 0 -25 3 -28 69 -2 38 -1
75 2 83 7 17 30 17 45 -1z m169 2 c21 -21 14 -38 -15 -38 -39 0 -55 -13 -51
-41 2 -20 10 -25 41 -27 28 -2 37 -8 37 -22 0 -20 -19 -30 -57 -30 -33 0 -83
51 -83 85 0 57 92 109 128 73z m171 -2 c7 -9 11 -41 9 -83 -3 -65 -4 -68 -28
-68 -24 0 -25 2 -28 83 -3 75 -1 82 16 82 11 0 25 -6 31 -14z m165 1 c30 -22
15 -42 -28 -39 -26 3 -36 0 -32 -7 4 -6 15 -11 25 -11 31 0 64 -33 57 -57 -13
-41 -88 -56 -126 -25 -33 26 -18 41 33 35 46 -6 44 5 -5 22 -17 5 -36 18 -42
28 -9 15 -6 23 17 43 31 27 73 31 101 11z m395 -2 c32 -16 41 -33 41 -75 0
-41 -29 -70 -76 -77 -86 -11 -135 88 -70 143 31 27 65 30 105 9z m175 9 c27
-11 19 -42 -11 -46 -27 -3 -28 -6 -31 -61 -3 -54 -5 -58 -25 -55 -20 3 -22 10
-25 75 -3 70 -2 71 25 81 34 13 47 14 67 6z m230 -4 c15 -5 32 -21 38 -36 11
-23 10 -28 -7 -40 -10 -8 -31 -14 -46 -14 -15 0 -31 -4 -34 -10 -4 -6 12 -10
39 -10 52 0 64 -22 22 -41 -56 -26 -136 20 -136 78 0 30 51 83 79 83 11 0 31
-4 45 -10z m114 -2 c5 -7 15 -33 22 -57 13 -50 25 -45 37 19 7 39 12 45 33 45
22 0 25 -4 22 -35 -1 -19 -13 -55 -25 -80 -17 -34 -28 -46 -49 -48 -21 -3 -30
3 -41 25 -24 45 -48 124 -42 134 9 13 31 11 43 -3z m266 2 c15 -5 32 -21 38
-36 11 -23 10 -28 -7 -40 -10 -8 -31 -14 -46 -14 -15 0 -31 -4 -34 -10 -4 -6
12 -10 39 -10 50 0 63 -20 27 -40 -56 -30 -141 15 -141 75 0 32 49 85 79 85
11 0 31 -4 45 -10z m186 -5 c15 -18 5 -31 -25 -37 -16 -3 -21 -13 -25 -58 -5
-51 -7 -55 -30 -55 -24 0 -25 2 -25 70 0 64 2 70 25 82 34 17 65 16 80 -2z
m77 7 c6 -4 15 -21 19 -37 4 -17 11 -39 17 -50 9 -18 13 -13 27 35 12 42 20
55 35 55 29 0 30 -40 5 -108 -27 -72 -64 -117 -96 -117 -28 0 -31 16 -8 41 14
16 14 21 -4 56 -31 60 -44 116 -29 125 15 10 19 10 34 0z m282 -7 c32 -16 41
-33 41 -75 0 -47 -31 -75 -83 -75 -61 0 -87 24 -87 80 0 71 63 105 129 70z
m204 4 c33 -18 37 -28 37 -97 0 -60 -1 -63 -22 -60 -18 2 -24 10 -26 38 -5 68
-11 82 -35 78 -19 -3 -22 -10 -25 -61 -3 -54 -5 -58 -25 -55 -20 3 -22 9 -22
73 0 64 2 70 25 82 31 16 65 16 93 2z m212 -14 c38 -37 33 -63 -12 -70 -63
-11 -71 -19 -20 -23 32 -2 47 -8 47 -17 0 -22 -39 -38 -78 -32 -51 9 -72 32
-72 83 0 34 5 47 26 63 36 28 79 27 109 -4z"/>
<path d="M2262 4020 c-138 -36 -282 -130 -367 -237 -48 -62 -105 -162 -105
-185 0 -12 57 -38 83 -38 3 0 21 28 39 63 44 82 164 203 245 245 179 94 399
93 576 0 91 -48 205 -165 250 -258 38 -76 67 -185 67 -252 0 -32 5 -39 44 -62
25 -14 47 -26 50 -26 3 0 6 37 6 83 0 308 -223 590 -528 668 -100 25 -260 25
-360 -1z"/>
<path d="M3138 3863 c-32 -2 -58 -8 -58 -12 0 -4 14 -27 30 -49 l30 -42 80 0
c128 0 230 -30 340 -100 43 -27 48 -28 103 -17 31 6 57 14 57 17 0 9 -71 67
-125 101 -49 32 -156 75 -215 87 -59 13 -171 19 -242 15z"/>
<path d="M2360 3830 c-114 -21 -229 -89 -305 -179 -36 -44 -75 -111 -75 -130
0 -10 62 -51 76 -51 5 0 25 28 44 62 42 72 102 128 179 165 75 36 203 44 287
17 115 -36 225 -146 255 -254 16 -57 23 -66 57 -73 15 -3 35 -9 45 -12 14 -6
17 -2 17 22 0 71 -48 184 -114 266 -40 50 -147 122 -219 146 -68 24 -183 33
-247 21z"/>
<path d="M3200 3649 c0 -37 25 -90 44 -93 12 -2 43 -9 70 -14 44 -9 55 -7 103
16 29 14 53 29 53 33 0 4 -21 16 -47 27 -87 37 -223 55 -223 31z"/>
<path d="M2347 3613 c-85 -29 -187 -142 -187 -207 0 -18 68 -106 82 -106 4 0
8 13 8 29 0 149 163 244 292 168 24 -14 50 -37 58 -51 7 -15 22 -26 34 -27 12
0 36 -2 54 -3 38 -4 41 8 13 62 -61 119 -223 181 -354 135z"/>
<path d="M3645 3534 c-109 -24 -240 -92 -318 -166 -65 -61 -68 -65 -76 -125
-6 -52 -5 -65 9 -78 14 -13 20 -8 60 46 80 110 221 197 364 224 98 19 138 19
234 -1 119 -24 214 -75 303 -164 124 -124 181 -261 180 -435 -1 -163 -60 -304
-176 -420 -119 -118 -260 -177 -425 -178 -102 0 -185 20 -281 68 -39 20 -72
35 -74 33 -5 -5 -35 -80 -35 -87 0 -13 144 -79 210 -97 100 -27 274 -25 370 5
251 77 431 262 497 511 26 97 23 264 -6 360 -73 241 -238 413 -466 486 -103
33 -266 41 -370 18z"/>
<path d="M1455 3486 c-273 -63 -478 -264 -546 -537 -19 -76 -17 -249 4 -329
39 -148 142 -305 257 -392 119 -89 290 -148 429 -148 32 0 93 6 134 14 74 14
222 69 232 87 7 10 -32 89 -43 89 -5 0 -31 -11 -59 -24 -233 -113 -504 -66
-688 118 -238 240 -238 613 0 852 119 119 252 176 415 178 169 1 303 -50 420
-161 l70 -65 35 26 c19 15 35 33 35 41 0 20 -119 125 -191 168 -102 60 -205
89 -334 93 -70 2 -132 -1 -170 -10z"/>
<path d="M2384 3395 c-14 -14 -24 -28 -21 -31 8 -9 127 31 124 41 -2 6 -20 11
-40 13 -29 3 -42 -3 -63 -23z"/>
<path d="M3735 3338 c-131 -14 -259 -89 -340 -199 -25 -34 -45 -67 -45 -74 0
-16 49 -105 58 -105 4 0 18 23 31 52 67 146 223 236 388 226 228 -15 402 -231
365 -455 -51 -309 -405 -445 -647 -247 -30 24 -56 40 -59 36 -2 -4 -6 -32 -7
-62 l-3 -55 47 -32 c153 -103 359 -110 522 -18 193 108 295 346 240 558 -65
249 -293 405 -550 375z"/>
<path d="M2525 3296 c-143 -33 -257 -97 -362 -203 -59 -60 -82 -93 -122 -176
-62 -129 -76 -186 -75 -317 0 -125 18 -202 73 -315 87 -177 241 -304 441 -366
96 -30 270 -32 370 -5 369 101 589 458 515 834 -9 46 -34 115 -62 172 -82 168
-242 303 -427 362 -81 26 -268 33 -351 14z m326 -115 c292 -91 474 -395 415
-692 -26 -128 -75 -219 -171 -314 -124 -124 -249 -176 -422 -176 -105 1 -162
12 -249 51 -218 98 -354 308 -354 547 0 163 50 294 156 411 157 174 403 241
625 173z"/>
<path d="M2605 3098 c-343 -44 -540 -427 -377 -732 39 -74 145 -176 220 -214
218 -108 486 -42 628 154 67 94 94 178 94 293 0 180 -79 329 -225 423 -98 64
-222 92 -340 76z m220 -128 c45 -17 77 -40 126 -89 88 -89 113 -149 114 -281
0 -86 -3 -101 -32 -162 -59 -126 -161 -204 -300 -230 -210 -39 -418 114 -455
335 -25 149 53 320 180 394 117 69 243 80 367 33z"/>
<path d="M2595 2887 c-62 -21 -97 -42 -136 -84 -60 -62 -83 -123 -80 -213 5
-253 322 -377 499 -197 61 62 87 127 86 212 -1 86 -26 147 -84 205 -73 73
-197 106 -285 77z m189 -130 c112 -86 98 -266 -26 -326 -176 -85 -354 119
-243 279 39 57 95 82 171 78 49 -3 69 -10 98 -31z"/>
<path d="M2624 2675 c-12 -8 -27 -28 -34 -45 -37 -89 90 -160 150 -83 59 75
-39 183 -116 128z"/>
<path d="M1476 3279 c-66 -16 -173 -79 -230 -136 -270 -272 -149 -726 223
-837 122 -36 293 -11 392 56 25 17 26 20 17 65 -6 27 -11 49 -12 50 -2 2 -37
-15 -78 -36 -123 -64 -243 -65 -365 -5 -151 73 -245 255 -215 414 53 288 365
430 605 277 50 -32 127 -110 127 -129 0 -21 21 -4 45 37 l26 45 -22 31 c-48
67 -174 146 -270 168 -53 13 -190 12 -243 0z"/>
<path d="M3716 3124 c-132 -42 -212 -149 -210 -284 2 -207 199 -342 400 -273
68 23 145 102 169 172 25 76 17 183 -18 242 -73 124 -215 183 -341 143z m170
-114 c140 -68 134 -276 -11 -341 -122 -56 -253 24 -263 160 -11 151 136 247
274 181z"/>
<path d="M3739 2901 c-35 -35 -38 -77 -9 -114 39 -50 117 -42 146 15 46 89
-66 170 -137 99z"/>
<path d="M1537 3080 c-92 -23 -170 -90 -209 -178 -30 -66 -22 -191 15 -254 77
-133 237 -187 374 -128 63 27 143 108 143 144 0 14 7 62 16 106 16 76 15 83
-1 128 -24 61 -94 135 -153 160 -58 25 -134 34 -185 22z m165 -129 c124 -79
114 -267 -17 -331 -188 -91 -368 151 -222 300 66 68 161 80 239 31z"/>
<path d="M1565 2870 c-88 -35 -53 -170 44 -170 32 0 71 41 78 82 5 32 1 41
-25 68 -31 30 -59 36 -97 20z"/>
<path d="M3057 1263 c-16 -4 -17 -15 -15 -96 l3 -92 36 -3 c53 -4 80 22 87 86
4 47 2 54 -26 82 -29 29 -46 33 -85 23z"/>
<path d="M1318 1374 c-5 -4 -8 -34 -8 -66 l0 -58 38 0 c21 0 46 6 55 13 26 20
31 60 10 85 -18 23 -82 40 -95 26z"/>
<path d="M1824 1120 c-12 -5 -25 -13 -28 -18 -11 -18 24 -42 58 -42 38 0 56
16 52 45 -3 23 -46 30 -82 15z"/>
<path d="M3543 1120 c-42 -17 -21 -60 28 -60 45 0 59 10 59 41 0 26 -3 29 -32
28 -18 0 -43 -4 -55 -9z"/>
<path d="M1130 540 c0 -12 8 -12 35 0 18 8 17 9 -7 9 -16 1 -28 -3 -28 -9z"/>
<path d="M2884 536 c-11 -29 0 -51 26 -51 21 0 25 5 25 30 0 24 -5 31 -23 33
-13 2 -24 -3 -28 -12z"/>
<path d="M3305 540 c-7 -12 2 -12 30 0 19 8 19 9 -2 9 -12 1 -25 -3 -28 -9z"/>
<path d="M3680 540 c0 -13 20 -13 40 0 12 8 9 10 -12 10 -16 0 -28 -4 -28 -10z"/>
<path d="M4216 532 c-14 -44 26 -71 55 -36 9 11 10 20 2 32 -15 25 -50 27 -57
4z"/>
<path d="M4625 540 c-8 -13 15 -13 35 0 12 8 11 10 -7 10 -12 0 -25 -4 -28
-10z"/>
</g>
</svg>
